<mxfile host="app.diagrams.net" agent="Mozilla/5.0 (Windows NT 10.0; Win64; x64) AppleWebKit/537.36 (KHTML, like Gecko) Chrome/131.0.0.0 Safari/537.36" version="24.9.1">
  <diagram id="C5RBs43oDa-KdzZeNtuy" name="Page-1">
    <mxGraphModel dx="2084" dy="674" grid="1" gridSize="10" guides="1" tooltips="1" connect="1" arrows="1" fold="1" page="1" pageScale="1" pageWidth="827" pageHeight="1169" math="0" shadow="0">
      <root>
        <mxCell id="WIyWlLk6GJQsqaUBKTNV-0" />
        <mxCell id="WIyWlLk6GJQsqaUBKTNV-1" parent="WIyWlLk6GJQsqaUBKTNV-0" />
        <mxCell id="9sNv9Av7HzAYeRk0FfPq-47" style="edgeStyle=orthogonalEdgeStyle;rounded=0;orthogonalLoop=1;jettySize=auto;html=1;" parent="WIyWlLk6GJQsqaUBKTNV-1" source="9sNv9Av7HzAYeRk0FfPq-0" target="9sNv9Av7HzAYeRk0FfPq-16" edge="1">
          <mxGeometry relative="1" as="geometry" />
        </mxCell>
        <mxCell id="9sNv9Av7HzAYeRk0FfPq-48" style="edgeStyle=orthogonalEdgeStyle;rounded=0;orthogonalLoop=1;jettySize=auto;html=1;entryX=0;entryY=0.5;entryDx=0;entryDy=0;" parent="WIyWlLk6GJQsqaUBKTNV-1" source="9sNv9Av7HzAYeRk0FfPq-0" target="9sNv9Av7HzAYeRk0FfPq-24" edge="1">
          <mxGeometry relative="1" as="geometry">
            <Array as="points">
              <mxPoint x="180" y="240" />
              <mxPoint x="310" y="240" />
              <mxPoint x="310" y="299" />
            </Array>
          </mxGeometry>
        </mxCell>
        <mxCell id="9sNv9Av7HzAYeRk0FfPq-0" value="User" style="swimlane;fontStyle=2;align=center;verticalAlign=top;childLayout=stackLayout;horizontal=1;startSize=26;horizontalStack=0;resizeParent=1;resizeLast=0;collapsible=1;marginBottom=0;rounded=0;shadow=0;strokeWidth=1;" parent="WIyWlLk6GJQsqaUBKTNV-1" vertex="1">
          <mxGeometry x="100" y="79" width="160" height="90" as="geometry">
            <mxRectangle x="40" y="30" width="160" height="26" as="alternateBounds" />
          </mxGeometry>
        </mxCell>
        <mxCell id="9sNv9Av7HzAYeRk0FfPq-3" value="email: String" style="text;align=left;verticalAlign=top;spacingLeft=4;spacingRight=4;overflow=hidden;rotatable=0;points=[[0,0.5],[1,0.5]];portConstraint=eastwest;" parent="9sNv9Av7HzAYeRk0FfPq-0" vertex="1">
          <mxGeometry y="26" width="160" height="26" as="geometry" />
        </mxCell>
        <mxCell id="9sNv9Av7HzAYeRk0FfPq-4" value="password: String" style="text;align=left;verticalAlign=top;spacingLeft=4;spacingRight=4;overflow=hidden;rotatable=0;points=[[0,0.5],[1,0.5]];portConstraint=eastwest;rounded=0;shadow=0;html=0;" parent="9sNv9Av7HzAYeRk0FfPq-0" vertex="1">
          <mxGeometry y="52" width="160" height="26" as="geometry" />
        </mxCell>
        <mxCell id="9sNv9Av7HzAYeRk0FfPq-5" value="Profile" style="swimlane;fontStyle=0;align=center;verticalAlign=top;childLayout=stackLayout;horizontal=1;startSize=26;horizontalStack=0;resizeParent=1;resizeLast=0;collapsible=1;marginBottom=0;rounded=0;shadow=0;strokeWidth=1;" parent="WIyWlLk6GJQsqaUBKTNV-1" vertex="1">
          <mxGeometry x="340" y="70" width="160" height="156" as="geometry">
            <mxRectangle x="280" y="10" width="160" height="26" as="alternateBounds" />
          </mxGeometry>
        </mxCell>
        <mxCell id="9sNv9Av7HzAYeRk0FfPq-7" value="firstName" style="text;align=left;verticalAlign=top;spacingLeft=4;spacingRight=4;overflow=hidden;rotatable=0;points=[[0,0.5],[1,0.5]];portConstraint=eastwest;rounded=0;shadow=0;html=0;" parent="9sNv9Av7HzAYeRk0FfPq-5" vertex="1">
          <mxGeometry y="26" width="160" height="26" as="geometry" />
        </mxCell>
        <mxCell id="9sNv9Av7HzAYeRk0FfPq-8" value="lastName" style="text;align=left;verticalAlign=top;spacingLeft=4;spacingRight=4;overflow=hidden;rotatable=0;points=[[0,0.5],[1,0.5]];portConstraint=eastwest;rounded=0;shadow=0;html=0;" parent="9sNv9Av7HzAYeRk0FfPq-5" vertex="1">
          <mxGeometry y="52" width="160" height="26" as="geometry" />
        </mxCell>
        <mxCell id="9sNv9Av7HzAYeRk0FfPq-9" value="imagePath&#xa;&#xa;" style="text;align=left;verticalAlign=top;spacingLeft=4;spacingRight=4;overflow=hidden;rotatable=0;points=[[0,0.5],[1,0.5]];portConstraint=eastwest;rounded=0;shadow=0;html=0;" parent="9sNv9Av7HzAYeRk0FfPq-5" vertex="1">
          <mxGeometry y="78" width="160" height="26" as="geometry" />
        </mxCell>
        <mxCell id="HE4f3aYyyqkxuOcVup1_-10" value="telephone" style="text;align=left;verticalAlign=top;spacingLeft=4;spacingRight=4;overflow=hidden;rotatable=0;points=[[0,0.5],[1,0.5]];portConstraint=eastwest;rounded=0;shadow=0;html=0;" vertex="1" parent="9sNv9Av7HzAYeRk0FfPq-5">
          <mxGeometry y="104" width="160" height="26" as="geometry" />
        </mxCell>
        <mxCell id="9sNv9Av7HzAYeRk0FfPq-14" value="/fullName" style="text;align=left;verticalAlign=top;spacingLeft=4;spacingRight=4;overflow=hidden;rotatable=0;points=[[0,0.5],[1,0.5]];portConstraint=eastwest;rounded=0;shadow=0;html=0;" parent="9sNv9Av7HzAYeRk0FfPq-5" vertex="1">
          <mxGeometry y="130" width="160" height="26" as="geometry" />
        </mxCell>
        <mxCell id="9sNv9Av7HzAYeRk0FfPq-10" value="BaseEntity" style="swimlane;fontStyle=0;align=center;verticalAlign=top;childLayout=stackLayout;horizontal=1;startSize=26;horizontalStack=0;resizeParent=1;resizeLast=0;collapsible=1;marginBottom=0;rounded=0;shadow=0;strokeWidth=1;labelBackgroundColor=none;fillColor=#f0a30a;strokeColor=default;swimlaneFillColor=#FFE14A;fontColor=#FFFFFF;" parent="WIyWlLk6GJQsqaUBKTNV-1" vertex="1">
          <mxGeometry x="-430" y="50" width="160" height="115" as="geometry">
            <mxRectangle x="340" y="380" width="170" height="26" as="alternateBounds" />
          </mxGeometry>
        </mxCell>
        <mxCell id="9sNv9Av7HzAYeRk0FfPq-11" value="id" style="text;align=left;verticalAlign=top;spacingLeft=4;spacingRight=4;overflow=hidden;rotatable=0;points=[[0,0.5],[1,0.5]];portConstraint=eastwest;" parent="9sNv9Av7HzAYeRk0FfPq-10" vertex="1">
          <mxGeometry y="26" width="160" height="26" as="geometry" />
        </mxCell>
        <mxCell id="9sNv9Av7HzAYeRk0FfPq-12" value="createdAt" style="text;align=left;verticalAlign=top;spacingLeft=4;spacingRight=4;overflow=hidden;rotatable=0;points=[[0,0.5],[1,0.5]];portConstraint=eastwest;" parent="9sNv9Av7HzAYeRk0FfPq-10" vertex="1">
          <mxGeometry y="52" width="160" height="26" as="geometry" />
        </mxCell>
        <mxCell id="9sNv9Av7HzAYeRk0FfPq-13" value="updatedAt" style="text;align=left;verticalAlign=top;spacingLeft=4;spacingRight=4;overflow=hidden;rotatable=0;points=[[0,0.5],[1,0.5]];portConstraint=eastwest;" parent="9sNv9Av7HzAYeRk0FfPq-10" vertex="1">
          <mxGeometry y="78" width="160" height="26" as="geometry" />
        </mxCell>
        <mxCell id="9sNv9Av7HzAYeRk0FfPq-15" value="" style="endArrow=none;html=1;rounded=0;exitX=1;exitY=0.5;exitDx=0;exitDy=0;" parent="WIyWlLk6GJQsqaUBKTNV-1" source="9sNv9Av7HzAYeRk0FfPq-4" target="9sNv9Av7HzAYeRk0FfPq-5" edge="1">
          <mxGeometry width="50" height="50" relative="1" as="geometry">
            <mxPoint x="250" y="60" as="sourcePoint" />
            <mxPoint x="300" y="10" as="targetPoint" />
          </mxGeometry>
        </mxCell>
        <mxCell id="9sNv9Av7HzAYeRk0FfPq-16" value="LostItems" style="swimlane;fontStyle=0;align=center;verticalAlign=top;childLayout=stackLayout;horizontal=1;startSize=26;horizontalStack=0;resizeParent=1;resizeLast=0;collapsible=1;marginBottom=0;rounded=0;shadow=0;strokeWidth=1;" parent="WIyWlLk6GJQsqaUBKTNV-1" vertex="1">
          <mxGeometry x="60" y="260" width="160" height="170" as="geometry">
            <mxRectangle x="280" y="10" width="160" height="26" as="alternateBounds" />
          </mxGeometry>
        </mxCell>
        <mxCell id="9sNv9Av7HzAYeRk0FfPq-17" value="item description" style="text;align=left;verticalAlign=top;spacingLeft=4;spacingRight=4;overflow=hidden;rotatable=0;points=[[0,0.5],[1,0.5]];portConstraint=eastwest;rounded=0;shadow=0;html=0;" parent="9sNv9Av7HzAYeRk0FfPq-16" vertex="1">
          <mxGeometry y="26" width="160" height="26" as="geometry" />
        </mxCell>
        <mxCell id="9sNv9Av7HzAYeRk0FfPq-18" value="owner" style="text;align=left;verticalAlign=top;spacingLeft=4;spacingRight=4;overflow=hidden;rotatable=0;points=[[0,0.5],[1,0.5]];portConstraint=eastwest;rounded=0;shadow=0;html=0;" parent="9sNv9Av7HzAYeRk0FfPq-16" vertex="1">
          <mxGeometry y="52" width="160" height="26" as="geometry" />
        </mxCell>
        <mxCell id="9sNv9Av7HzAYeRk0FfPq-19" value="isDelivered&#xa;" style="text;align=left;verticalAlign=top;spacingLeft=4;spacingRight=4;overflow=hidden;rotatable=0;points=[[0,0.5],[1,0.5]];portConstraint=eastwest;rounded=0;shadow=0;html=0;" parent="9sNv9Av7HzAYeRk0FfPq-16" vertex="1">
          <mxGeometry y="78" width="160" height="26" as="geometry" />
        </mxCell>
        <mxCell id="9sNv9Av7HzAYeRk0FfPq-21" value="lostAt" style="text;align=left;verticalAlign=top;spacingLeft=4;spacingRight=4;overflow=hidden;rotatable=0;points=[[0,0.5],[1,0.5]];portConstraint=eastwest;rounded=0;shadow=0;html=0;" parent="9sNv9Av7HzAYeRk0FfPq-16" vertex="1">
          <mxGeometry y="104" width="160" height="26" as="geometry" />
        </mxCell>
        <mxCell id="9sNv9Av7HzAYeRk0FfPq-59" style="edgeStyle=orthogonalEdgeStyle;rounded=0;orthogonalLoop=1;jettySize=auto;html=1;" parent="WIyWlLk6GJQsqaUBKTNV-1" source="9sNv9Av7HzAYeRk0FfPq-23" edge="1">
          <mxGeometry relative="1" as="geometry">
            <mxPoint x="-80" y="610" as="targetPoint" />
            <Array as="points">
              <mxPoint x="430" y="680" />
              <mxPoint x="-10" y="680" />
              <mxPoint x="-10" y="640" />
              <mxPoint x="-80" y="640" />
            </Array>
          </mxGeometry>
        </mxCell>
        <mxCell id="9sNv9Av7HzAYeRk0FfPq-23" value="FoundItems" style="swimlane;fontStyle=0;align=center;verticalAlign=top;childLayout=stackLayout;horizontal=1;startSize=26;horizontalStack=0;resizeParent=1;resizeLast=0;collapsible=1;marginBottom=0;rounded=0;shadow=0;strokeWidth=1;" parent="WIyWlLk6GJQsqaUBKTNV-1" vertex="1">
          <mxGeometry x="350" y="260" width="160" height="190" as="geometry">
            <mxRectangle x="280" y="10" width="160" height="26" as="alternateBounds" />
          </mxGeometry>
        </mxCell>
        <mxCell id="9sNv9Av7HzAYeRk0FfPq-24" value="item description" style="text;align=left;verticalAlign=top;spacingLeft=4;spacingRight=4;overflow=hidden;rotatable=0;points=[[0,0.5],[1,0.5]];portConstraint=eastwest;rounded=0;shadow=0;html=0;" parent="9sNv9Av7HzAYeRk0FfPq-23" vertex="1">
          <mxGeometry y="26" width="160" height="26" as="geometry" />
        </mxCell>
        <mxCell id="9sNv9Av7HzAYeRk0FfPq-25" value="founder" style="text;align=left;verticalAlign=top;spacingLeft=4;spacingRight=4;overflow=hidden;rotatable=0;points=[[0,0.5],[1,0.5]];portConstraint=eastwest;rounded=0;shadow=0;html=0;" parent="9sNv9Av7HzAYeRk0FfPq-23" vertex="1">
          <mxGeometry y="52" width="160" height="26" as="geometry" />
        </mxCell>
        <mxCell id="9sNv9Av7HzAYeRk0FfPq-26" value="isDelivered&#xa;" style="text;align=left;verticalAlign=top;spacingLeft=4;spacingRight=4;overflow=hidden;rotatable=0;points=[[0,0.5],[1,0.5]];portConstraint=eastwest;rounded=0;shadow=0;html=0;" parent="9sNv9Av7HzAYeRk0FfPq-23" vertex="1">
          <mxGeometry y="78" width="160" height="26" as="geometry" />
        </mxCell>
        <mxCell id="9sNv9Av7HzAYeRk0FfPq-27" value="foundAt" style="text;align=left;verticalAlign=top;spacingLeft=4;spacingRight=4;overflow=hidden;rotatable=0;points=[[0,0.5],[1,0.5]];portConstraint=eastwest;rounded=0;shadow=0;html=0;" parent="9sNv9Av7HzAYeRk0FfPq-23" vertex="1">
          <mxGeometry y="104" width="160" height="26" as="geometry" />
        </mxCell>
        <mxCell id="9sNv9Av7HzAYeRk0FfPq-28" value="geoCoordinates" style="text;align=left;verticalAlign=top;spacingLeft=4;spacingRight=4;overflow=hidden;rotatable=0;points=[[0,0.5],[1,0.5]];portConstraint=eastwest;rounded=0;shadow=0;html=0;" parent="9sNv9Av7HzAYeRk0FfPq-23" vertex="1">
          <mxGeometry y="130" width="160" height="26" as="geometry" />
        </mxCell>
        <mxCell id="9sNv9Av7HzAYeRk0FfPq-50" value="status&#xa;" style="text;align=left;verticalAlign=top;spacingLeft=4;spacingRight=4;overflow=hidden;rotatable=0;points=[[0,0.5],[1,0.5]];portConstraint=eastwest;rounded=0;shadow=0;html=0;" parent="9sNv9Av7HzAYeRk0FfPq-23" vertex="1">
          <mxGeometry y="156" width="160" height="26" as="geometry" />
        </mxCell>
        <mxCell id="9sNv9Av7HzAYeRk0FfPq-29" value="ItemDescription" style="swimlane;fontStyle=0;align=center;verticalAlign=top;childLayout=stackLayout;horizontal=1;startSize=26;horizontalStack=0;resizeParent=1;resizeLast=0;collapsible=1;marginBottom=0;rounded=0;shadow=0;strokeWidth=1;" parent="WIyWlLk6GJQsqaUBKTNV-1" vertex="1">
          <mxGeometry x="210" y="470" width="160" height="160" as="geometry">
            <mxRectangle x="280" y="10" width="160" height="26" as="alternateBounds" />
          </mxGeometry>
        </mxCell>
        <mxCell id="9sNv9Av7HzAYeRk0FfPq-30" value="category" style="text;align=left;verticalAlign=top;spacingLeft=4;spacingRight=4;overflow=hidden;rotatable=0;points=[[0,0.5],[1,0.5]];portConstraint=eastwest;rounded=0;shadow=0;html=0;" parent="9sNv9Av7HzAYeRk0FfPq-29" vertex="1">
          <mxGeometry y="26" width="160" height="26" as="geometry" />
        </mxCell>
        <mxCell id="9sNv9Av7HzAYeRk0FfPq-31" value="title" style="text;align=left;verticalAlign=top;spacingLeft=4;spacingRight=4;overflow=hidden;rotatable=0;points=[[0,0.5],[1,0.5]];portConstraint=eastwest;rounded=0;shadow=0;html=0;" parent="9sNv9Av7HzAYeRk0FfPq-29" vertex="1">
          <mxGeometry y="52" width="160" height="26" as="geometry" />
        </mxCell>
        <mxCell id="9sNv9Av7HzAYeRk0FfPq-33" value="description" style="text;align=left;verticalAlign=top;spacingLeft=4;spacingRight=4;overflow=hidden;rotatable=0;points=[[0,0.5],[1,0.5]];portConstraint=eastwest;rounded=0;shadow=0;html=0;" parent="9sNv9Av7HzAYeRk0FfPq-29" vertex="1">
          <mxGeometry y="78" width="160" height="26" as="geometry" />
        </mxCell>
        <mxCell id="9sNv9Av7HzAYeRk0FfPq-32" value="color" style="text;align=left;verticalAlign=top;spacingLeft=4;spacingRight=4;overflow=hidden;rotatable=0;points=[[0,0.5],[1,0.5]];portConstraint=eastwest;rounded=0;shadow=0;html=0;" parent="9sNv9Av7HzAYeRk0FfPq-29" vertex="1">
          <mxGeometry y="104" width="160" height="26" as="geometry" />
        </mxCell>
        <mxCell id="9sNv9Av7HzAYeRk0FfPq-36" value="ItemImage" style="swimlane;fontStyle=0;align=center;verticalAlign=top;childLayout=stackLayout;horizontal=1;startSize=26;horizontalStack=0;resizeParent=1;resizeLast=0;collapsible=1;marginBottom=0;rounded=0;shadow=0;strokeWidth=1;" parent="WIyWlLk6GJQsqaUBKTNV-1" vertex="1">
          <mxGeometry x="480" y="570" width="160" height="80" as="geometry">
            <mxRectangle x="280" y="10" width="160" height="26" as="alternateBounds" />
          </mxGeometry>
        </mxCell>
        <mxCell id="9sNv9Av7HzAYeRk0FfPq-38" value="imageUrl" style="text;align=left;verticalAlign=top;spacingLeft=4;spacingRight=4;overflow=hidden;rotatable=0;points=[[0,0.5],[1,0.5]];portConstraint=eastwest;rounded=0;shadow=0;html=0;" parent="9sNv9Av7HzAYeRk0FfPq-36" vertex="1">
          <mxGeometry y="26" width="160" height="26" as="geometry" />
        </mxCell>
        <mxCell id="9sNv9Av7HzAYeRk0FfPq-42" style="edgeStyle=entityRelationEdgeStyle;rounded=0;orthogonalLoop=1;jettySize=auto;html=1;" parent="WIyWlLk6GJQsqaUBKTNV-1" source="9sNv9Av7HzAYeRk0FfPq-33" target="9sNv9Av7HzAYeRk0FfPq-38" edge="1">
          <mxGeometry relative="1" as="geometry" />
        </mxCell>
        <mxCell id="9sNv9Av7HzAYeRk0FfPq-44" value="0.*" style="edgeLabel;html=1;align=center;verticalAlign=middle;resizable=0;points=[];" parent="9sNv9Av7HzAYeRk0FfPq-42" vertex="1" connectable="0">
          <mxGeometry x="0.7929" y="-3" relative="1" as="geometry">
            <mxPoint as="offset" />
          </mxGeometry>
        </mxCell>
        <mxCell id="9sNv9Av7HzAYeRk0FfPq-45" style="edgeStyle=orthogonalEdgeStyle;rounded=0;orthogonalLoop=1;jettySize=auto;html=1;entryX=0.75;entryY=0;entryDx=0;entryDy=0;" parent="WIyWlLk6GJQsqaUBKTNV-1" source="9sNv9Av7HzAYeRk0FfPq-26" target="9sNv9Av7HzAYeRk0FfPq-29" edge="1">
          <mxGeometry relative="1" as="geometry">
            <Array as="points">
              <mxPoint x="330" y="351" />
            </Array>
          </mxGeometry>
        </mxCell>
        <mxCell id="9sNv9Av7HzAYeRk0FfPq-46" style="edgeStyle=orthogonalEdgeStyle;rounded=0;orthogonalLoop=1;jettySize=auto;html=1;exitX=1;exitY=0.5;exitDx=0;exitDy=0;entryX=0.337;entryY=0.02;entryDx=0;entryDy=0;entryPerimeter=0;" parent="WIyWlLk6GJQsqaUBKTNV-1" source="9sNv9Av7HzAYeRk0FfPq-19" target="9sNv9Av7HzAYeRk0FfPq-29" edge="1">
          <mxGeometry relative="1" as="geometry" />
        </mxCell>
        <mxCell id="9sNv9Av7HzAYeRk0FfPq-52" value="ItemStatus&#xa;" style="swimlane;fontStyle=0;align=center;verticalAlign=top;childLayout=stackLayout;horizontal=1;startSize=26;horizontalStack=0;resizeParent=1;resizeLast=0;collapsible=1;marginBottom=0;rounded=0;shadow=0;strokeWidth=1;fillColor=#00E865;strokeColor=#82b366;gradientColor=none;swimlaneFillColor=#21FF97;" parent="WIyWlLk6GJQsqaUBKTNV-1" vertex="1">
          <mxGeometry x="-170" y="490" width="160" height="120" as="geometry">
            <mxRectangle x="280" y="10" width="160" height="26" as="alternateBounds" />
          </mxGeometry>
        </mxCell>
        <mxCell id="9sNv9Av7HzAYeRk0FfPq-53" value="FORM_SUBMITED" style="text;align=left;verticalAlign=top;spacingLeft=4;spacingRight=4;overflow=hidden;rotatable=0;points=[[0,0.5],[1,0.5]];portConstraint=eastwest;rounded=0;shadow=0;html=0;" parent="9sNv9Av7HzAYeRk0FfPq-52" vertex="1">
          <mxGeometry y="26" width="160" height="26" as="geometry" />
        </mxCell>
        <mxCell id="9sNv9Av7HzAYeRk0FfPq-54" value="UNDER_REVIEW" style="text;align=left;verticalAlign=top;spacingLeft=4;spacingRight=4;overflow=hidden;rotatable=0;points=[[0,0.5],[1,0.5]];portConstraint=eastwest;rounded=0;shadow=0;html=0;" parent="9sNv9Av7HzAYeRk0FfPq-52" vertex="1">
          <mxGeometry y="52" width="160" height="26" as="geometry" />
        </mxCell>
        <mxCell id="9sNv9Av7HzAYeRk0FfPq-55" value="FOUND_MATCHES" style="text;align=left;verticalAlign=top;spacingLeft=4;spacingRight=4;overflow=hidden;rotatable=0;points=[[0,0.5],[1,0.5]];portConstraint=eastwest;rounded=0;shadow=0;html=0;" parent="9sNv9Av7HzAYeRk0FfPq-52" vertex="1">
          <mxGeometry y="78" width="160" height="26" as="geometry" />
        </mxCell>
        <mxCell id="9sNv9Av7HzAYeRk0FfPq-58" style="edgeStyle=orthogonalEdgeStyle;rounded=0;orthogonalLoop=1;jettySize=auto;html=1;entryX=0.672;entryY=0.016;entryDx=0;entryDy=0;entryPerimeter=0;" parent="WIyWlLk6GJQsqaUBKTNV-1" source="9sNv9Av7HzAYeRk0FfPq-16" target="9sNv9Av7HzAYeRk0FfPq-52" edge="1">
          <mxGeometry relative="1" as="geometry" />
        </mxCell>
        <mxCell id="HE4f3aYyyqkxuOcVup1_-24" style="edgeStyle=orthogonalEdgeStyle;rounded=0;orthogonalLoop=1;jettySize=auto;html=1;entryX=0;entryY=0.75;entryDx=0;entryDy=0;" edge="1" parent="WIyWlLk6GJQsqaUBKTNV-1" source="HE4f3aYyyqkxuOcVup1_-2" target="HE4f3aYyyqkxuOcVup1_-23">
          <mxGeometry relative="1" as="geometry">
            <Array as="points">
              <mxPoint x="-117" y="1060" />
              <mxPoint x="-117" y="1060" />
            </Array>
          </mxGeometry>
        </mxCell>
        <mxCell id="HE4f3aYyyqkxuOcVup1_-2" value="authentication" style="ellipse;whiteSpace=wrap;html=1;" vertex="1" parent="WIyWlLk6GJQsqaUBKTNV-1">
          <mxGeometry x="-440" y="1040" width="140" height="70" as="geometry" />
        </mxCell>
        <mxCell id="HE4f3aYyyqkxuOcVup1_-30" style="edgeStyle=orthogonalEdgeStyle;rounded=0;orthogonalLoop=1;jettySize=auto;html=1;exitX=1;exitY=1;exitDx=0;exitDy=0;exitPerimeter=0;entryX=0;entryY=0.5;entryDx=0;entryDy=0;" edge="1" parent="WIyWlLk6GJQsqaUBKTNV-1" source="HE4f3aYyyqkxuOcVup1_-5" target="HE4f3aYyyqkxuOcVup1_-26">
          <mxGeometry relative="1" as="geometry" />
        </mxCell>
        <mxCell id="HE4f3aYyyqkxuOcVup1_-31" style="edgeStyle=orthogonalEdgeStyle;rounded=0;orthogonalLoop=1;jettySize=auto;html=1;exitX=0.5;exitY=0.5;exitDx=0;exitDy=0;exitPerimeter=0;entryX=0;entryY=0.5;entryDx=0;entryDy=0;" edge="1" parent="WIyWlLk6GJQsqaUBKTNV-1" source="HE4f3aYyyqkxuOcVup1_-5" target="HE4f3aYyyqkxuOcVup1_-27">
          <mxGeometry relative="1" as="geometry">
            <Array as="points">
              <mxPoint x="-560" y="1185" />
              <mxPoint x="-560" y="1485" />
            </Array>
          </mxGeometry>
        </mxCell>
        <mxCell id="HE4f3aYyyqkxuOcVup1_-33" style="edgeStyle=orthogonalEdgeStyle;rounded=0;orthogonalLoop=1;jettySize=auto;html=1;exitX=0.5;exitY=0.5;exitDx=0;exitDy=0;exitPerimeter=0;" edge="1" parent="WIyWlLk6GJQsqaUBKTNV-1" source="HE4f3aYyyqkxuOcVup1_-5" target="HE4f3aYyyqkxuOcVup1_-28">
          <mxGeometry relative="1" as="geometry">
            <Array as="points">
              <mxPoint x="-667" y="1290" />
              <mxPoint x="-140" y="1290" />
            </Array>
          </mxGeometry>
        </mxCell>
        <mxCell id="HE4f3aYyyqkxuOcVup1_-5" value="User" style="shape=umlActor;verticalLabelPosition=bottom;verticalAlign=top;html=1;" vertex="1" parent="WIyWlLk6GJQsqaUBKTNV-1">
          <mxGeometry x="-690" y="1140" width="45" height="90" as="geometry" />
        </mxCell>
        <mxCell id="HE4f3aYyyqkxuOcVup1_-15" style="edgeStyle=orthogonalEdgeStyle;rounded=0;orthogonalLoop=1;jettySize=auto;html=1;exitX=0;exitY=0.5;exitDx=0;exitDy=0;entryX=0.879;entryY=0.143;entryDx=0;entryDy=0;entryPerimeter=0;shape=flexArrow;endWidth=11.282051282051283;endSize=8.682051282051281;width=4.102564102564103;" edge="1" parent="WIyWlLk6GJQsqaUBKTNV-1" source="HE4f3aYyyqkxuOcVup1_-8" target="HE4f3aYyyqkxuOcVup1_-2">
          <mxGeometry relative="1" as="geometry">
            <mxPoint x="-257" y="1000" as="sourcePoint" />
            <mxPoint x="-300.000009445101" y="1065.0181818181818" as="targetPoint" />
          </mxGeometry>
        </mxCell>
        <mxCell id="HE4f3aYyyqkxuOcVup1_-8" value="email and password" style="ellipse;whiteSpace=wrap;html=1;" vertex="1" parent="WIyWlLk6GJQsqaUBKTNV-1">
          <mxGeometry x="-377" y="870" width="100" height="60" as="geometry" />
        </mxCell>
        <mxCell id="HE4f3aYyyqkxuOcVup1_-9" value="with google account" style="ellipse;whiteSpace=wrap;html=1;" vertex="1" parent="WIyWlLk6GJQsqaUBKTNV-1">
          <mxGeometry x="-277" y="1145" width="90" height="60" as="geometry" />
        </mxCell>
        <mxCell id="HE4f3aYyyqkxuOcVup1_-18" style="edgeStyle=orthogonalEdgeStyle;rounded=0;orthogonalLoop=1;jettySize=auto;html=1;entryX=0.977;entryY=0.704;entryDx=0;entryDy=0;entryPerimeter=0;shape=flexArrow;endWidth=10.76923076923077;endSize=8.210256410256411;width=3.58974358974359;" edge="1" parent="WIyWlLk6GJQsqaUBKTNV-1" source="HE4f3aYyyqkxuOcVup1_-9" target="HE4f3aYyyqkxuOcVup1_-2">
          <mxGeometry relative="1" as="geometry" />
        </mxCell>
        <mxCell id="HE4f3aYyyqkxuOcVup1_-21" style="rounded=0;orthogonalLoop=1;jettySize=auto;html=1;entryX=-0.004;entryY=0.578;entryDx=0;entryDy=0;entryPerimeter=0;" edge="1" parent="WIyWlLk6GJQsqaUBKTNV-1" source="HE4f3aYyyqkxuOcVup1_-5" target="HE4f3aYyyqkxuOcVup1_-2">
          <mxGeometry relative="1" as="geometry" />
        </mxCell>
        <mxCell id="HE4f3aYyyqkxuOcVup1_-23" value="&lt;p style=&quot;margin:0px;margin-top:4px;text-align:center;&quot;&gt;Data Base&lt;/p&gt;" style="verticalAlign=top;align=left;overflow=fill;html=1;whiteSpace=wrap;fillColor=#fff2cc;strokeColor=#d6b656;" vertex="1" parent="WIyWlLk6GJQsqaUBKTNV-1">
          <mxGeometry x="370" y="1030" width="147" height="60" as="geometry" />
        </mxCell>
        <mxCell id="HE4f3aYyyqkxuOcVup1_-26" value="search lost item" style="ellipse;whiteSpace=wrap;html=1;" vertex="1" parent="WIyWlLk6GJQsqaUBKTNV-1">
          <mxGeometry x="-490" y="1320" width="140" height="70" as="geometry" />
        </mxCell>
        <mxCell id="HE4f3aYyyqkxuOcVup1_-27" value="report a lost item" style="ellipse;whiteSpace=wrap;html=1;" vertex="1" parent="WIyWlLk6GJQsqaUBKTNV-1">
          <mxGeometry x="-490" y="1450" width="140" height="70" as="geometry" />
        </mxCell>
        <mxCell id="HE4f3aYyyqkxuOcVup1_-28" value="create a profile" style="ellipse;whiteSpace=wrap;html=1;" vertex="1" parent="WIyWlLk6GJQsqaUBKTNV-1">
          <mxGeometry x="-210" y="1370" width="140" height="70" as="geometry" />
        </mxCell>
        <mxCell id="HE4f3aYyyqkxuOcVup1_-29" value="chat with other users" style="ellipse;whiteSpace=wrap;html=1;" vertex="1" parent="WIyWlLk6GJQsqaUBKTNV-1">
          <mxGeometry x="-503" y="1580" width="180" height="90" as="geometry" />
        </mxCell>
        <mxCell id="HE4f3aYyyqkxuOcVup1_-34" value="" style="endArrow=block;dashed=1;endFill=0;endSize=12;html=1;rounded=0;exitX=0.084;exitY=0.167;exitDx=0;exitDy=0;exitPerimeter=0;" edge="1" parent="WIyWlLk6GJQsqaUBKTNV-1" source="HE4f3aYyyqkxuOcVup1_-28" target="HE4f3aYyyqkxuOcVup1_-2">
          <mxGeometry width="160" relative="1" as="geometry">
            <mxPoint x="-230" y="1260" as="sourcePoint" />
            <mxPoint x="-70" y="1260" as="targetPoint" />
          </mxGeometry>
        </mxCell>
        <mxCell id="HE4f3aYyyqkxuOcVup1_-39" value="include" style="edgeLabel;html=1;align=center;verticalAlign=middle;resizable=0;points=[];" vertex="1" connectable="0" parent="HE4f3aYyyqkxuOcVup1_-34">
          <mxGeometry x="-0.005" relative="1" as="geometry">
            <mxPoint as="offset" />
          </mxGeometry>
        </mxCell>
        <mxCell id="HE4f3aYyyqkxuOcVup1_-35" value="" style="endArrow=block;dashed=1;endFill=0;endSize=12;html=1;rounded=0;exitX=0.084;exitY=0.167;exitDx=0;exitDy=0;exitPerimeter=0;entryX=0;entryY=0.5;entryDx=0;entryDy=0;" edge="1" parent="WIyWlLk6GJQsqaUBKTNV-1" target="HE4f3aYyyqkxuOcVup1_-28">
          <mxGeometry width="160" relative="1" as="geometry">
            <mxPoint x="-350" y="1353" as="sourcePoint" />
            <mxPoint x="-503" y="1080" as="targetPoint" />
          </mxGeometry>
        </mxCell>
        <mxCell id="HE4f3aYyyqkxuOcVup1_-38" value="include" style="edgeLabel;html=1;align=center;verticalAlign=middle;resizable=0;points=[];" vertex="1" connectable="0" parent="HE4f3aYyyqkxuOcVup1_-35">
          <mxGeometry x="0.0025" relative="1" as="geometry">
            <mxPoint as="offset" />
          </mxGeometry>
        </mxCell>
        <mxCell id="HE4f3aYyyqkxuOcVup1_-36" value="" style="endArrow=block;dashed=1;endFill=0;endSize=12;html=1;rounded=0;exitX=0.084;exitY=0.167;exitDx=0;exitDy=0;exitPerimeter=0;entryX=0;entryY=0.714;entryDx=0;entryDy=0;entryPerimeter=0;" edge="1" parent="WIyWlLk6GJQsqaUBKTNV-1" target="HE4f3aYyyqkxuOcVup1_-28">
          <mxGeometry width="160" relative="1" as="geometry">
            <mxPoint x="-350" y="1480" as="sourcePoint" />
            <mxPoint x="-210" y="1532" as="targetPoint" />
          </mxGeometry>
        </mxCell>
        <mxCell id="HE4f3aYyyqkxuOcVup1_-37" value="include" style="edgeLabel;html=1;align=center;verticalAlign=middle;resizable=0;points=[];" vertex="1" connectable="0" parent="HE4f3aYyyqkxuOcVup1_-36">
          <mxGeometry x="-0.0056" relative="1" as="geometry">
            <mxPoint as="offset" />
          </mxGeometry>
        </mxCell>
        <mxCell id="HE4f3aYyyqkxuOcVup1_-40" value="" style="endArrow=block;dashed=1;endFill=0;endSize=12;html=1;rounded=0;exitX=0.084;exitY=0.167;exitDx=0;exitDy=0;exitPerimeter=0;entryX=0;entryY=0.5;entryDx=0;entryDy=0;" edge="1" parent="WIyWlLk6GJQsqaUBKTNV-1" target="HE4f3aYyyqkxuOcVup1_-42">
          <mxGeometry width="160" relative="1" as="geometry">
            <mxPoint x="-70" y="1405" as="sourcePoint" />
            <mxPoint x="303" y="1080" as="targetPoint" />
          </mxGeometry>
        </mxCell>
        <mxCell id="HE4f3aYyyqkxuOcVup1_-41" value="extends" style="edgeLabel;html=1;align=center;verticalAlign=middle;resizable=0;points=[];" vertex="1" connectable="0" parent="HE4f3aYyyqkxuOcVup1_-40">
          <mxGeometry x="-0.0056" relative="1" as="geometry">
            <mxPoint as="offset" />
          </mxGeometry>
        </mxCell>
        <mxCell id="HE4f3aYyyqkxuOcVup1_-42" value="upload profile picture" style="ellipse;whiteSpace=wrap;html=1;" vertex="1" parent="WIyWlLk6GJQsqaUBKTNV-1">
          <mxGeometry x="140" y="1370" width="140" height="70" as="geometry" />
        </mxCell>
        <mxCell id="HE4f3aYyyqkxuOcVup1_-48" style="edgeStyle=orthogonalEdgeStyle;rounded=0;orthogonalLoop=1;jettySize=auto;html=1;" edge="1" parent="WIyWlLk6GJQsqaUBKTNV-1" source="HE4f3aYyyqkxuOcVup1_-44" target="HE4f3aYyyqkxuOcVup1_-42">
          <mxGeometry relative="1" as="geometry" />
        </mxCell>
        <mxCell id="HE4f3aYyyqkxuOcVup1_-44" value="&lt;p style=&quot;margin:0px;margin-top:4px;text-align:center;&quot;&gt;serveur des fichiers&lt;/p&gt;" style="verticalAlign=top;align=left;overflow=fill;html=1;whiteSpace=wrap;fillColor=#fff2cc;strokeColor=#d6b656;" vertex="1" parent="WIyWlLk6GJQsqaUBKTNV-1">
          <mxGeometry x="400" y="1370" width="147" height="60" as="geometry" />
        </mxCell>
        <mxCell id="HE4f3aYyyqkxuOcVup1_-49" style="edgeStyle=orthogonalEdgeStyle;rounded=0;orthogonalLoop=1;jettySize=auto;html=1;exitX=0.5;exitY=0.5;exitDx=0;exitDy=0;exitPerimeter=0;entryX=0.026;entryY=0.638;entryDx=0;entryDy=0;entryPerimeter=0;" edge="1" parent="WIyWlLk6GJQsqaUBKTNV-1" source="HE4f3aYyyqkxuOcVup1_-5" target="HE4f3aYyyqkxuOcVup1_-29">
          <mxGeometry relative="1" as="geometry">
            <Array as="points">
              <mxPoint x="-710" y="1185" />
              <mxPoint x="-710" y="1380" />
              <mxPoint x="-590" y="1380" />
              <mxPoint x="-590" y="1625" />
              <mxPoint x="-498" y="1625" />
            </Array>
          </mxGeometry>
        </mxCell>
        <mxCell id="HE4f3aYyyqkxuOcVup1_-50" style="edgeStyle=orthogonalEdgeStyle;rounded=0;orthogonalLoop=1;jettySize=auto;html=1;entryX=0.119;entryY=0.981;entryDx=0;entryDy=0;entryPerimeter=0;" edge="1" parent="WIyWlLk6GJQsqaUBKTNV-1" source="HE4f3aYyyqkxuOcVup1_-29" target="HE4f3aYyyqkxuOcVup1_-23">
          <mxGeometry relative="1" as="geometry">
            <Array as="points">
              <mxPoint x="388" y="1625" />
            </Array>
          </mxGeometry>
        </mxCell>
      </root>
    </mxGraphModel>
  </diagram>
</mxfile>
